<svg xmlns="http://www.w3.org/2000/svg" width="36" height="31.5" viewBox="0 0 36 31.5">
  <g id="Icon_ion-cloudy-night-outline" data-name="Icon ion-cloudy-night-outline" transform="translate(0 -2.25)">
    <path id="Path_19772" data-name="Path 19772" d="M27.3,19.125a8.218,8.218,0,0,0,7.572-4.846,8.462,8.462,0,0,1-3.331.605,8.178,8.178,0,0,1-8.178-8.178,8.462,8.462,0,0,1,.605-3.331,8.322,8.322,0,0,0-4.6,9.553" fill="none" stroke="#2076af" stroke-linecap="round" stroke-linejoin="round" stroke-width="2.25"/>
    <path id="Path_19773" data-name="Path 19773" d="M6.371,21.575a1.13,1.13,0,0,0,.941-.932c.85-5.163,4.615-8.269,9-8.269A8.386,8.386,0,0,1,24.2,17.841a1.114,1.114,0,0,0,.858.694c3.516.573,6.441,2.921,6.441,7,0,4.177-3.417,7.087-7.594,7.087H7.453c-3.48,0-6.328-1.737-6.328-5.569C1.125,23.648,3.844,21.978,6.371,21.575Z" fill="none" stroke="#2076af" stroke-linejoin="round" stroke-width="2.25"/>
  </g>
</svg>
