<svg width="519" height="519" viewBox="0 0 519 519" fill="none" xmlns="http://www.w3.org/2000/svg">
<g clip-path="url(#clip0_63_22)">
<!-- <rect width="519" height="519" fill="white"/> -->
<path d="M331.167 409.219C308.764 417.329 284.639 421.688 259.5 421.688C234.361 421.688 210.134 417.227 187.833 409.219C187.529 409.118 187.327 409.017 187.022 408.915C156.612 397.765 129.446 379.823 107.348 356.812C70.957 318.901 48.6562 267.508 48.6562 210.844C48.6562 94.3728 143.029 0 259.5 0C375.971 0 470.344 94.3728 470.344 210.844C470.344 267.508 448.043 318.901 411.652 356.812C410.638 357.826 409.625 358.941 408.611 359.955C386.919 381.647 360.563 398.576 331.268 409.219H331.167ZM259.5 93.1564C248.248 93.1564 239.125 102.279 239.125 113.531V119.613C233.449 120.83 228.076 122.553 223.008 124.783C207.803 131.676 194.726 144.448 191.483 162.998C189.658 173.338 190.672 183.272 194.929 192.395C199.187 201.315 205.775 207.6 212.466 212.162C224.224 220.17 239.733 224.832 251.593 228.38L253.823 229.09C267.913 233.347 277.543 236.591 283.524 240.95C286.058 242.774 286.97 244.194 287.275 245.004C287.579 245.815 288.187 247.64 287.477 251.796C286.869 255.344 284.943 258.284 279.368 260.716C273.185 263.352 263.149 264.67 250.174 262.642C244.092 261.629 233.246 257.979 223.616 254.634C221.386 253.925 219.257 253.114 217.129 252.506C206.485 248.958 195.03 254.736 191.483 265.379C187.935 276.023 193.713 287.477 204.356 291.025C205.573 291.431 207.093 291.938 208.816 292.546C216.824 295.283 229.394 299.54 239.024 301.77V308.156C239.024 319.408 248.147 328.531 259.399 328.531C270.65 328.531 279.773 319.408 279.773 308.156V302.581C285.146 301.567 290.417 300.047 295.384 297.918C311.299 291.127 324.172 277.949 327.416 258.689C329.241 248.147 328.43 238.112 324.375 228.887C320.422 219.764 314.036 213.074 307.244 208.107C294.877 199.187 278.557 194.22 266.292 190.469L265.481 190.266C251.087 185.907 241.355 182.866 235.172 178.71C232.536 176.886 231.725 175.669 231.523 175.163C231.32 174.858 230.813 173.541 231.421 170.094C231.725 168.168 233.347 164.823 239.733 161.883C246.221 158.944 256.358 157.322 268.724 159.248C273.083 159.957 286.869 162.593 290.721 163.607C301.567 166.445 312.616 160.059 315.556 149.212C318.496 138.366 312.008 127.317 301.162 124.378C296.702 123.161 286.565 121.134 279.875 119.917V113.531C279.875 102.279 270.752 93.1564 259.5 93.1564ZM48.6562 356.812H64.875C84.6416 383.067 109.477 405.165 138.062 421.688H64.875V454.125H259.5H454.125V421.688H380.938C409.523 405.165 434.46 383.067 454.125 356.812H470.344C497.206 356.812 519 378.606 519 405.469V470.344C519 497.206 497.206 519 470.344 519H48.6562C21.7939 519 0 497.206 0 470.344V405.469C0 378.606 21.7939 356.812 48.6562 356.812Z" fill="#010101"/>
</g>
<defs>
<clipPath id="clip0_63_22">
<rect width="519" height="519" fill="white"/>
</clipPath>
</defs>
</svg>
